<mxfile host="app.diagrams.net" modified="2023-09-06T05:09:49.145Z" agent="Mozilla/5.0 (Macintosh; Intel Mac OS X 10.15; rv:109.0) Gecko/20100101 Firefox/117.0" version="21.6.8" etag="Lll42sc1B2NkV62boW3N" type="github">
  <diagram name="Page-1" id="QMVUvsa7lcz09MKu6aRf">
    <mxGraphModel>
      <root>
        <mxCell id="0" />
        <mxCell id="1" parent="0" />
      </root>
    </mxGraphModel>
  </diagram>
</mxfile>
